<svg xmlns="http://www.w3.org/2000/svg" xmlns:xlink="http://www.w3.org/1999/xlink" width="100" height="100" viewBox="0 0 100 100">
  <defs>
    <clipPath id="clip-anchor">
      <rect width="100" height="100"/>
    </clipPath>
  </defs>
  <g id="anchor" clip-path="url(#clip-anchor)">
    <g id="_005-anchor-1" data-name="005-anchor-1" transform="translate(-64.566)">
      <g id="Groupe_7" data-name="Groupe 7" transform="translate(80.566 0)">
        <path id="Tracé_5" data-name="Tracé 5" d="M133.361,65.6l3.281,5.285,5.685-3.529c-2.109,10.344-9.968,12.929-17.6,15.442a53.243,53.243,0,0,0-6.777,2.566V39.277h12.4v-6.22h-12.4V22.629a11.53,11.53,0,1,0-6.22,0V33.057h-12.4v6.22h12.4V85.371a53.162,53.162,0,0,0-6.786-2.57c-7.637-2.513-15.5-5.1-17.6-15.442l5.685,3.529L96.3,65.6,80.566,55.836v5.591c0,8.791,2.545,15.328,7.78,19.985,4.419,3.931,9.854,5.719,14.649,7.3,4.314,1.42,8.039,2.646,8.988,4.806L114.83,100l2.848-6.484c.949-2.161,4.674-3.387,8.988-4.806,4.8-1.578,10.23-3.366,14.649-7.3,5.235-4.657,7.78-11.194,7.78-19.985V55.836ZM114.835,16.839a5.309,5.309,0,1,1,5.3-5.311A5.317,5.317,0,0,1,114.835,16.839Z" transform="translate(-80.566 0)" fill="#fff"/>
      </g>
    </g>
  </g>
</svg>
