<svg xmlns="http://www.w3.org/2000/svg" xmlns:xlink="http://www.w3.org/1999/xlink" width="100" height="100" viewBox="0 0 100 100">
  <defs>
    <clipPath id="clip-boussole">
      <rect width="100" height="100"/>
    </clipPath>
  </defs>
  <g id="boussole" clip-path="url(#clip-boussole)">
    <g id="_020-compass-2" data-name="020-compass-2">
      <g id="Groupe_32" data-name="Groupe 32">
        <g id="Groupe_31" data-name="Groupe 31">
          <path id="Tracé_17" data-name="Tracé 17" d="M100,50,75.871,36.069l4.371-16.311L63.93,24.129,50,0,36.069,24.129,19.758,19.758l4.371,16.311L0,50,24.129,63.931,19.758,80.242l16.312-4.37L50,100,63.931,75.871l16.311,4.371L75.871,63.93ZM71.583,28.416l-1.2,4.483L68.3,31.7l-1.2-2.08ZM50,12.245l7.621,13.2a25.759,25.759,0,0,0-15.243,0ZM25.446,57.622,12.245,50l13.2-7.621a25.76,25.76,0,0,0,0,15.243Zm7.454-28L31.7,31.7l-2.081,1.2-1.2-4.484ZM28.417,71.584l1.2-4.483L31.7,68.3l1.2,2.08ZM50,87.755l-7.621-13.2a25.758,25.758,0,0,0,15.243,0Zm13.924-24-.1.06-.06.1a19.55,19.55,0,0,1-27.519,0l-.06-.1-.1-.06a19.55,19.55,0,0,1,0-27.519l.1-.06.06-.1a19.55,19.55,0,0,1,27.518,0l.06.1.1.06a19.55,19.55,0,0,1,0,27.518ZM67.1,70.382,68.3,68.3l2.08-1.2,1.2,4.484Zm7.454-28L87.755,50l-13.2,7.622a25.76,25.76,0,0,0,0-15.243Z" fill="#fff"/>
        </g>
      </g>
      <g id="Groupe_34" data-name="Groupe 34" transform="translate(38.222 38.222)">
        <g id="Groupe_33" data-name="Groupe 33">
          <path id="Tracé_18" data-name="Tracé 18" d="M200.675,200.674,195.7,219.252l18.578-4.978,4.978-18.578Zm3.68,9.92.4-1.506,1.1,1.1Zm5.836-4.733-1.1-1.1,1.507-.4Z" transform="translate(-195.697 -195.696)" fill="#fff"/>
        </g>
      </g>
    </g>
  </g>
</svg>
