<svg xmlns="http://www.w3.org/2000/svg" xmlns:xlink="http://www.w3.org/1999/xlink" width="100" height="100" viewBox="0 0 100 100">
  <defs>
    <clipPath id="clip-hat">
      <rect width="100" height="100"/>
    </clipPath>
  </defs>
  <g id="hat" clip-path="url(#clip-hat)">
    <g id="_026-hat" data-name="026-hat" transform="translate(0 -63.061)">
      <g id="Groupe_38" data-name="Groupe 38" transform="translate(0 78.061)">
        <g id="Groupe_37" data-name="Groupe 37">
          <path id="Tracé_21" data-name="Tracé 21" d="M94.742,94.109a46.093,46.093,0,0,0-11.913-8.131A77.65,77.65,0,0,0,50,78.061a77.651,77.651,0,0,0-32.829,7.917A46.093,46.093,0,0,0,5.258,94.109C1.769,97.587,0,101.147,0,104.691c0,5.537,3.264,10.946,9.439,15.642a46.7,46.7,0,0,0,6.865,4.29V131.3a16.287,16.287,0,0,0,16.269,16.269H67.427A16.287,16.287,0,0,0,83.7,131.3v-6.676a46.679,46.679,0,0,0,6.865-4.29c6.175-4.7,9.439-10.105,9.439-15.642C100,101.147,98.231,97.587,94.742,94.109ZM77.174,131.3a9.758,9.758,0,0,1-9.747,9.747H32.573a9.758,9.758,0,0,1-9.747-9.747v-5.47H77.174Zm2.569-11.992H20.257c-4.323-1.994-13.736-7.765-13.736-14.616,0-3.736,5.318-8.788,13.548-12.872A70.813,70.813,0,0,1,50,84.583,70.814,70.814,0,0,1,79.931,91.82c8.23,4.084,13.548,9.136,13.548,12.872C93.478,111.544,84.062,117.316,79.743,119.307Z" transform="translate(0 -78.061)" fill="#fff"/>
        </g>
      </g>
      <g id="Groupe_40" data-name="Groupe 40" transform="translate(37.992 91.393)">
        <g id="Groupe_39" data-name="Groupe 39">
          <path id="Tracé_22" data-name="Tracé 22" d="M212.294,158.471a6.857,6.857,0,0,1-2.5,3.876v-6.874h3.261v-6.522H209.79v-2.628h-6.522v2.628h-3.261v6.522h3.261v6.875a6.857,6.857,0,0,1-2.5-3.877l-6.242,1.888c1.807,5.975,6.183,9.4,12.01,9.4s10.2-3.427,12.006-9.4Z" transform="translate(-194.521 -146.323)" fill="#fff"/>
        </g>
      </g>
    </g>
  </g>
</svg>
