<svg xmlns="http://www.w3.org/2000/svg" xmlns:xlink="http://www.w3.org/1999/xlink" width="100" height="100" viewBox="0 0 100 100">
  <defs>
    <clipPath id="clip-helm">
      <rect width="100" height="100"/>
    </clipPath>
  </defs>
  <g id="helm" clip-path="url(#clip-helm)">
    <g id="_048-helm" data-name="048-helm" transform="translate(0 -0.001)">
      <g id="Groupe_26" data-name="Groupe 26" transform="translate(19.131 19.132)">
        <g id="Groupe_25" data-name="Groupe 25">
          <path id="Tracé_15" data-name="Tracé 15" d="M128.818,97.949a30.87,30.87,0,1,0,30.87,30.87A30.9,30.9,0,0,0,128.818,97.949Zm24.129,27.609h-9.486a14.918,14.918,0,0,0-1.987-4.783l6.7-6.7A24.227,24.227,0,0,1,152.947,125.558ZM132.079,104.69a24.225,24.225,0,0,1,11.487,4.77l-6.7,6.7a14.912,14.912,0,0,0-4.783-1.987Zm-6.522,0v9.486a14.921,14.921,0,0,0-4.783,1.987l-6.7-6.7A24.227,24.227,0,0,1,125.557,104.69Zm-16.1,9.381,6.7,6.7a14.911,14.911,0,0,0-1.987,4.783h-9.486A24.225,24.225,0,0,1,109.458,114.071Zm-4.77,18.009h9.486a14.918,14.918,0,0,0,1.987,4.783l-6.7,6.7A24.227,24.227,0,0,1,104.689,132.08Zm20.868,20.868a24.223,24.223,0,0,1-11.487-4.77l6.7-6.7a14.911,14.911,0,0,0,4.783,1.987Zm-5.222-24.129a8.482,8.482,0,1,1,8.482,8.482A8.492,8.492,0,0,1,120.335,128.819Zm11.744,24.129v-9.486h0a14.921,14.921,0,0,0,4.783-1.987l6.7,6.7A24.227,24.227,0,0,1,132.079,152.948Zm16.1-9.381-6.7-6.7a14.907,14.907,0,0,0,1.987-4.783h9.486A24.226,24.226,0,0,1,148.177,143.567Z" transform="translate(-97.948 -97.949)" fill="#fff"/>
        </g>
      </g>
      <g id="Groupe_28" data-name="Groupe 28" transform="translate(46.645 46.646)">
        <g id="Groupe_27" data-name="Groupe 27">
          <circle id="Ellipse_1" data-name="Ellipse 1" cx="3.355" cy="3.355" r="3.355" fill="#fff"/>
        </g>
      </g>
      <g id="Groupe_30" data-name="Groupe 30" transform="translate(0 0.001)">
        <g id="Groupe_29" data-name="Groupe 29" transform="translate(0 0)">
          <path id="Tracé_16" data-name="Tracé 16" d="M92.03,46.74A41.974,41.974,0,0,0,82.01,22.6l5.651-5.651L83.05,12.34,77.4,17.991A41.977,41.977,0,0,0,53.261,7.971V0H46.74V7.972A41.975,41.975,0,0,0,22.6,17.991L16.951,12.34l-4.612,4.611L17.99,22.6A41.973,41.973,0,0,0,7.97,46.74H0v6.522H7.97A41.974,41.974,0,0,0,17.99,77.4l-5.651,5.651,4.612,4.612L22.6,82.011A41.973,41.973,0,0,0,46.74,92.031V100h6.522v-7.97A41.975,41.975,0,0,0,77.4,82.011l5.651,5.651,4.612-4.612L82.011,77.4A41.973,41.973,0,0,0,92.03,53.262H100V46.74H92.03ZM50,85.635A35.633,35.633,0,1,1,85.634,50,35.674,35.674,0,0,1,50,85.635Z" transform="translate(0 -0.001)" fill="#fff"/>
        </g>
      </g>
    </g>
  </g>
</svg>
