<svg xmlns="http://www.w3.org/2000/svg" xmlns:xlink="http://www.w3.org/1999/xlink" width="100" height="100" viewBox="0 0 100 100">
  <defs>
    <clipPath id="clip-knot">
      <rect width="100" height="100"/>
    </clipPath>
  </defs>
  <g id="knot" clip-path="url(#clip-knot)">
    <g id="_007-knot-1" data-name="007-knot-1">
      <g id="Groupe_32" data-name="Groupe 32">
        <path id="Tracé_18" data-name="Tracé 18" d="M86.912,33.083,100,19.995l-4.614-4.614L83.762,27A36.912,36.912,0,0,0,73,16.238L84.62,4.614,80.005,0,66.917,13.088a26.964,26.964,0,0,0-4.159-1.26c-7.664-1.635-14.782.566-20.582,6.366-5.35,5.35-6.426,11.675-5.9,18.082-6.407-.527-12.733.551-18.082,5.9-5.8,5.8-8,12.917-6.367,20.582a26.945,26.945,0,0,0,1.26,4.159L0,80.005l4.614,4.614L16.238,73A36.917,36.917,0,0,0,27,83.762L15.38,95.386,19.995,100,33.083,86.912a26.965,26.965,0,0,0,4.159,1.26,23.209,23.209,0,0,0,4.85.525,21.891,21.891,0,0,0,15.732-6.892c5.35-5.35,6.427-11.675,5.9-18.082,6.407.527,12.733-.551,18.082-5.9,5.8-5.8,8-12.917,6.366-20.582A26.989,26.989,0,0,0,86.912,33.083ZM18.286,61.719c-.025-.107-.054-.215-.076-.322-1.168-5.473.379-10.387,4.6-14.606a14.264,14.264,0,0,1,10.706-4.139,29.5,29.5,0,0,1,3.774.267c.4,1.908.852,3.8,1.3,5.64.327,1.352.657,2.716.962,4.078-6.562-.409-13.076.9-18.753,6.573ZM36.177,74.59l-4.438,4.438A30.583,30.583,0,0,1,20.972,68.262l4.438-4.438A15.784,15.784,0,0,1,36.965,59.09a29.448,29.448,0,0,1,3.755.19,29.521,29.521,0,0,1,.19,3.755A15.781,15.781,0,0,1,36.177,74.59Zm17.033,2.6c-4.219,4.219-9.134,5.767-14.606,4.6-.107-.023-.215-.052-.322-.077l2.51-2.51c5.677-5.677,6.983-12.189,6.573-18.753,1.362.3,2.726.635,4.078.962,1.843.446,3.731.9,5.639,1.3C57.8,68.278,57.223,73.178,53.209,77.192ZM44.27,44.27c.905.212,1.823.434,2.754.659,2.139.518,4.336,1.049,6.559,1.489.44,2.223.971,4.419,1.489,6.559.225.93.447,1.848.659,2.754-.905-.212-1.823-.434-2.753-.659-2.139-.518-4.336-1.049-6.559-1.489-.44-2.223-.971-4.419-1.489-6.559C44.7,46.093,44.482,45.175,44.27,44.27Zm8.366-4.721c-1.362-.3-2.726-.635-4.078-.962-1.843-.446-3.731-.9-5.639-1.3-.721-5.567-.142-10.466,3.872-14.48,4.219-4.219,9.133-5.766,14.606-4.6.107.023.215.052.322.077l-2.51,2.51C53.532,26.473,52.226,32.986,52.636,39.549Zm6.454-2.583A15.781,15.781,0,0,1,63.823,25.41l4.438-4.438A30.58,30.58,0,0,1,79.028,31.738L74.59,36.177A15.783,15.783,0,0,1,63.035,40.91a29.765,29.765,0,0,1-3.755-.19A29.45,29.45,0,0,1,59.09,36.965Zm18.1,16.244c-4.013,4.014-8.913,4.593-14.48,3.872-.4-1.908-.852-3.8-1.3-5.639-.327-1.352-.657-2.716-.962-4.078,6.561.409,13.076-.9,18.753-6.573l2.51-2.51c.025.107.054.215.077.322C82.958,44.076,81.411,48.99,77.192,53.209Z" fill="#fff"/>
      </g>
    </g>
  </g>
</svg>
