<svg xmlns="http://www.w3.org/2000/svg" xmlns:xlink="http://www.w3.org/1999/xlink" width="100" height="100" viewBox="0 0 100 100">
  <defs>
    <clipPath id="clip-lifebuoy">
      <rect width="100" height="100"/>
    </clipPath>
  </defs>
  <g id="lifebuoy" clip-path="url(#clip-lifebuoy)">
    <g id="_038-lifebuoy" data-name="038-lifebuoy">
      <g id="Groupe_22" data-name="Groupe 22" transform="translate(0 0)">
        <path id="Tracé_12" data-name="Tracé 12" d="M85.355,14.645A50,50,0,1,0,14.645,85.355,50,50,0,0,0,85.355,14.645Zm-4.612,4.612a43.491,43.491,0,0,1,5.345,6.492L74.1,37.732A27.165,27.165,0,0,0,62.259,25.9l12-12A43.939,43.939,0,0,1,80.744,19.256ZM70.514,50a20.5,20.5,0,1,1-6.008-14.5A20.38,20.38,0,0,1,70.514,50ZM50,6.522A43.333,43.333,0,0,1,68.37,10.57L55.417,23.523a27.254,27.254,0,0,0-10.834,0L31.63,10.57A43.335,43.335,0,0,1,50,6.522ZM19.256,19.256A43.939,43.939,0,0,1,25.742,13.9l12,12A27.043,27.043,0,0,0,25.9,37.741l-12-12A43.937,43.937,0,0,1,19.256,19.256ZM6.522,50A43.336,43.336,0,0,1,10.57,31.63L23.523,44.583a27.252,27.252,0,0,0,0,10.833L10.57,68.37A43.338,43.338,0,0,1,6.522,50ZM19.256,80.744A43.927,43.927,0,0,1,13.9,74.258l12-12A27.042,27.042,0,0,0,37.741,74.1l-12,12A43.949,43.949,0,0,1,19.256,80.744ZM50,93.478A43.336,43.336,0,0,1,31.63,89.43L44.583,76.477a27.157,27.157,0,0,0,10.834,0L68.37,89.43A43.342,43.342,0,0,1,50,93.478ZM80.744,80.744A43.939,43.939,0,0,1,74.259,86.1l-12-12A27.165,27.165,0,0,0,74.105,62.268L86.089,74.252A43.551,43.551,0,0,1,80.744,80.744ZM76.491,55.431a27.4,27.4,0,0,0,0-10.863L89.416,31.644a43.7,43.7,0,0,1,0,36.712Z" transform="translate(0 0)" fill="#fff"/>
      </g>
    </g>
  </g>
</svg>
