<svg xmlns="http://www.w3.org/2000/svg" xmlns:xlink="http://www.w3.org/1999/xlink" width="100" height="100" viewBox="0 0 100 100">
  <defs>
    <clipPath id="clip-lighthouse">
      <rect width="100" height="100"/>
    </clipPath>
  </defs>
  <g id="lighthouse" clip-path="url(#clip-lighthouse)">
    <g id="_014-lighthouse-1" data-name="014-lighthouse-1" transform="translate(-68.167)">
      <g id="Groupe_13" data-name="Groupe 13" transform="translate(78.167)">
        <g id="Groupe_12" data-name="Groupe 12">
          <path id="Tracé_7" data-name="Tracé 7" d="M120.143,100,114.49,42.391H118.5V35.87h-4.6l-1.305-16.3h3.947V13.044h-4.469l-.111-1.39-.006-.064a12.869,12.869,0,0,0-25.611,0l-.116,1.454H81.763v6.522h3.947l-1.305,16.3h-4.6v6.522h4.012L78.167,100Zm-8.181-16.593.988,10.071h-16.9Zm-19.12-71.2a6.348,6.348,0,0,1,12.627,0l.067.835H92.775Zm-.589,7.356h13.8l.313,3.913H99.807V30h7.085l.47,5.87H90.948Zm-1.88,22.826h10.607L89.668,49.573Zm-1.513,15.42L108.243,45.5l1.143,11.648L87.563,71.025ZM86.754,79.267,110.1,64.427l1.149,11.713L85.459,92.467Z" transform="translate(-78.167)" fill="#fff"/>
        </g>
      </g>
      <g id="Groupe_15" data-name="Groupe 15" transform="translate(115.333 15.482)">
        <g id="Groupe_14" data-name="Groupe 14">
          <path id="Tracé_8" data-name="Tracé 8" d="M268.458,90.527l32.3,11.257V79.27ZM294.236,92.6l-5.961-2.078,5.961-2.078Z" transform="translate(-268.458 -79.27)" fill="#fff"/>
        </g>
      </g>
    </g>
  </g>
</svg>
