<svg xmlns="http://www.w3.org/2000/svg" xmlns:xlink="http://www.w3.org/1999/xlink" width="100" height="100" viewBox="0 0 100 100">
  <defs>
    <clipPath id="clip-oars">
      <rect width="100" height="100"/>
    </clipPath>
  </defs>
  <g id="oars" clip-path="url(#clip-oars)">
    <g id="_028-oars" data-name="028-oars" transform="translate(0 -34.388)">
      <g id="Groupe_31" data-name="Groupe 31" transform="translate(0 42.388)">
        <path id="Tracé_17" data-name="Tracé 17" d="M71.656,109.554l-17.12-17.12,6.209-6.209A14.32,14.32,0,0,0,78.5,84.231l21.5-21.5L79.751,42.478l-21.5,21.5a14.341,14.341,0,0,0-1.991,17.75l-6.211,6.211-6.3-6.3a14.32,14.32,0,0,0-1.994-17.753l-21.5-21.5L0,62.637l21.5,21.5a14.32,14.32,0,0,0,17.753,1.994l6.3,6.3L28.344,109.644a8.427,8.427,0,1,0,4.49,4.49L50.045,96.924,67.161,114.04a8.433,8.433,0,1,0,4.494-4.486ZM62.738,68.472,79.75,51.459,91.019,62.728,74.007,79.741a7.978,7.978,0,0,1-8.559,1.78L76.164,70.805l-4.49-4.49L60.961,77.028A7.979,7.979,0,0,1,62.738,68.472Zm-23.7,8.468L28.326,66.224l-4.49,4.49L34.552,81.43a7.977,7.977,0,0,1-8.559-1.78L8.98,62.637,20.249,51.368,37.262,68.381a7.977,7.977,0,0,1,1.78,8.559Zm-12.5,41.936a2.076,2.076,0,1,1,0-2.937A2.079,2.079,0,0,1,26.54,118.875Zm49.857-.09a2.075,2.075,0,1,1,0-2.937A2.079,2.079,0,0,1,76.4,118.785Z" transform="translate(0 -42.388)" fill="#fff"/>
      </g>
    </g>
  </g>
</svg>
