<svg xmlns="http://www.w3.org/2000/svg" xmlns:xlink="http://www.w3.org/1999/xlink" width="100" height="100" viewBox="0 0 100 100">
  <defs>
    <clipPath id="clip-sailor">
      <rect width="100" height="100"/>
    </clipPath>
  </defs>
  <g id="sailor" clip-path="url(#clip-sailor)">
    <g id="_003-sailor-cap-1" data-name="003-sailor-cap-1" transform="translate(-23.799)">
      <g id="Groupe_3" data-name="Groupe 3" transform="translate(42.522)">
        <g id="Groupe_2" data-name="Groupe 2">
          <path id="Tracé_2" data-name="Tracé 2" d="M149.41,15.688a24.722,24.722,0,0,0-46.025,0H94.941l3.7,25.873h55.521l3.7-25.873ZM126.4,6.46a18.339,18.339,0,0,1,15.873,9.228H110.525A18.339,18.339,0,0,1,126.4,6.46ZM148.555,35.1H104.24l-1.85-12.952h48.016Z" transform="translate(-94.941)" fill="#fff"/>
        </g>
      </g>
      <g id="Groupe_5" data-name="Groupe 5" transform="translate(29.799 49.64)">
        <g id="Groupe_4" data-name="Groupe 4" transform="translate(0)">
          <path id="Tracé_3" data-name="Tracé 3" d="M86.14,280.941l32.019-8.032L102.57,254.157,76.314,269.926a9.482,9.482,0,0,0-4.67,0L45.388,254.157,29.8,272.909l32.019,8.032A17.186,17.186,0,0,0,57,292.909a22.7,22.7,0,0,0,1.61,8.718l1.25,2.89,2.921-1.176a26.588,26.588,0,0,0,11.2-7.821,26.59,26.59,0,0,0,11.2,7.821l2.921,1.176,1.25-2.89a22.714,22.714,0,0,0,1.61-8.718A17.19,17.19,0,0,0,86.14,280.941Zm-44.808-11.8,5.481-6.593,19.162,11.509a9.463,9.463,0,0,0-.6,1.114Zm22.339,26.637a15.716,15.716,0,0,1-.2-2.96,10.562,10.562,0,0,1,3.262-7.649,9.5,9.5,0,0,0,3.947,2.794C69.827,291.556,66.652,294.115,63.671,295.779ZM73.979,282.1a3,3,0,1,1,3-3A3.006,3.006,0,0,1,73.979,282.1Zm10.308,13.679c-2.981-1.665-6.157-4.224-7-7.814a9.5,9.5,0,0,0,3.947-2.794,10.56,10.56,0,0,1,3.262,7.649A15.714,15.714,0,0,1,84.287,295.779Zm-1.7-20.608a9.474,9.474,0,0,0-.6-1.114l19.162-11.509,5.481,6.593Z" transform="translate(-29.799 -254.157)" fill="#fff"/>
        </g>
      </g>
    </g>
  </g>
</svg>
