<svg xmlns="http://www.w3.org/2000/svg" xmlns:xlink="http://www.w3.org/1999/xlink" width="100" height="100" viewBox="0 0 100 100">
  <defs>
    <clipPath id="clip-spyglass">
      <rect width="100" height="100"/>
    </clipPath>
  </defs>
  <g id="spyglass" clip-path="url(#clip-spyglass)">
    <g id="_043-spyglass" data-name="043-spyglass">
      <g id="Groupe_24" data-name="Groupe 24">
        <path id="Tracé_14" data-name="Tracé 14" d="M68.962,0l-4.7,4.7,4.15,4.15L38.5,38.758l3.264,3.264-21.79,21.79,1.744,1.744L6.662,80.615,4.7,78.654,0,83.355,16.645,100l4.7-4.7-1.961-1.961,15.06-15.06,1.744,1.744,21.79-21.79L61.242,61.5,91.148,31.589,95.3,35.74l4.7-4.7ZM14.683,88.636l-3.32-3.32,15.059-15.06,3.32,3.32Zm21.5-18.017-6.807-6.807L46.47,46.723l6.807,6.807ZM61.242,52.093,47.907,38.758l25.205-25.2L86.447,26.888Z" fill="#fff"/>
      </g>
    </g>
  </g>
</svg>
